<svg width="331" height="73" viewBox="0 0 331 73" fill="none" xmlns="http://www.w3.org/2000/svg">
<g clip-path="url(#clip0)">
<path d="M236.8 34.4001L239 19.6C234.2 17 227.5 14.8 219.8 14.8C204.6 14.8 196.3 22.8 196.3 33.1C196.3 44 206.2 47.2 213 49.5C217.1 51 220.3 52.1 220.3 54.3C220.3 56.1 218.2 57.8 214 57.8C207.9 57.8 199.4 54.3001 193.9 49.4001L191.5 65.6C197.2 69.8 205.4 72.3001 214.1 72.3001C229.2 72.3001 237.8 64.9001 237.8 54.4001C237.8 43.4001 228.5 39.7 221 37C216.8 35.5 213.8 34.6 213.8 32.5C213.8 30.7 215.9 29.3 220.2 29.3C226.4 29.3 232.8 32.2001 236.8 34.4001Z" fill="#000000"/>
<path d="M44.2001 16.3L43.2001 21.1C40.3001 15.4 31.7001 14.8 27.1001 14.8C12.7001 14.8 0.100098 28.6 0.100098 47.5C0.100098 62.7 9.3001 72.3001 20.8001 72.3001C27.2001 72.3001 32.7001 70.8 37.2001 65.5L36.0001 70.8001H38.6001H54.1001L62.4001 16.2H44.2001V16.3ZM29.1001 54.1C22.9001 54.1 18.2001 49.3001 18.2001 43.2001C18.2001 37.2001 23.0001 32.3 29.1001 32.3C35.1001 32.3 39.9001 37.2001 39.9001 43.2001C39.9001 49.3001 35.1001 54.1 29.1001 54.1Z" fill="#000000"/>
<path d="M177.7 16.3H175.8L174.8 21.1C171.9 15.4 163.3 14.8 158.7 14.8C144.3 14.8 131.7 28.6 131.7 47.5C131.7 62.7 140.9 72.3001 152.4 72.3001C158.8 72.3001 164.3 70.8 168.8 65.5L167.6 70.8001H170.2H185.7L194 16.2H177.7V16.3ZM160.7 54.1C154.5 54.1 149.8 49.3001 149.8 43.2001C149.8 37.2001 154.6 32.3 160.7 32.3C166.7 32.3 171.5 37.2001 171.5 43.2001C171.6 49.3001 166.7 54.1 160.7 54.1Z" fill="#000000"/>
<path d="M314.1 16.3H312.2L311.2 21.1C308.3 15.4 299.7 14.8 295.1 14.8C280.7 14.8 268.1 28.6 268.1 47.5C268.1 62.7 277.3 72.3001 288.8 72.3001C295.2 72.3001 300.7 70.8 305.2 65.5L304 70.8001H306.6H322.1L330.4 16.2H314.1V16.3ZM297.1 54.1C290.9 54.1 286.2 49.3001 286.2 43.2001C286.2 37.2001 291 32.3 297.1 32.3C303.1 32.3 307.9 37.2001 307.9 43.2001C307.9 49.3001 303.1 54.1 297.1 54.1Z" fill="#000000"/>
<path d="M79.8998 18.3001C84.9256 18.3001 88.9998 14.2259 88.9998 9.2001C88.9998 4.17431 84.9256 0.100098 79.8998 0.100098C74.874 0.100098 70.7998 4.17431 70.7998 9.2001C70.7998 14.2259 74.874 18.3001 79.8998 18.3001Z" fill="#000000"/>
<path d="M79.8 21.8C75.9 21.8 72.4 20 70.1 17.3L62 70.8001H80.2L88.1 18.8C85.8 20.7 83 21.8 79.8 21.8Z" fill="#000000"/>
<path d="M122.4 34.3001C127.426 34.3001 131.5 30.2259 131.5 25.2001C131.5 20.1743 127.426 16.1001 122.4 16.1001C117.374 16.1001 113.3 20.1743 113.3 25.2001C113.3 30.2259 117.374 34.3001 122.4 34.3001Z" fill="#000000"/>
<path d="M109.7 25.2002C109.7 21.7002 111.1 18.5002 113.4 16.2002H96.3L88 70.8002H106.2L112 32.4002C110.5 30.4002 109.7 27.9002 109.7 25.2002Z" fill="#000000"/>
<path d="M258.6 18.2C263.626 18.2 267.7 14.1258 267.7 9.1C267.7 4.07421 263.626 0 258.6 0C253.574 0 249.5 4.07421 249.5 9.1C249.5 14.1258 253.574 18.2 258.6 18.2Z" fill="#000000"/>
<path d="M258.6 21.8C254.6 21.8 251 19.9 248.6 17L240.4 70.8H258.6L266.5 19C264.3 20.8 261.6 21.8 258.6 21.8Z" fill="#000000"/>
</g>
<defs>
<clipPath id="clip0">
<rect width="330.4" height="72.3" fill="white"/>
</clipPath>
</defs>
</svg>