<?xml version="1.0" encoding="utf-8"?>
<svg xmlns="http://www.w3.org/2000/svg" fill="none" height="157" viewBox="0 0 199 157" width="199">
<g clip-path="url(#clip0)">
<path d="M83.5474 3.49503L77.3891 2.61035C77.3891 2.61035 66.8578 11.6316 61.9561 19.7744C61.9561 19.7744 62.8705 30.5838 62.8705 38.0163C62.8705 38.0163 62.9078 79.1665 103.702 116.155C140.913 149.898 168.128 137.219 173.347 131.662L177.234 116.155L151.071 95.7574C151.071 95.7574 140.994 92.7171 128.976 109.358C128.976 109.358 89.1894 85.0416 87.261 53.7662C87.261 53.7662 103.702 45.2682 102.284 39.4244C100.871 33.5805 95.2108 4.64138 95.2108 4.64138L83.5474 3.49503Z" fill="#F88E86"/>
<path d="M79.3297 0.14947C57.7446 8.29229 55.0884 31.8423 54.9889 32.8453C54.9702 33.026 54.9702 33.2005 54.9951 33.3687C56.4569 44.9879 58.547 58.4015 62.9449 69.7777C80.4867 115.121 114.768 133.033 118.618 134.926L118.737 134.995C125.243 139.182 131.825 141.985 138.3 143.343C158.61 147.599 172.102 136.503 173.919 134.141C175.816 131.674 178.155 123.849 179.716 117.345C179.928 116.467 179.604 115.551 178.889 115.002L149.547 92.387C148.838 91.8387 147.873 91.7577 147.083 92.1814C139.656 96.1313 132.801 102.418 129.38 105.813L128.733 106.455L127.955 105.975C100.187 88.9791 91.9511 63.3482 90.085 55.9032L89.8672 55.0434L90.6386 54.6011C100.255 49.0998 104.485 41.9974 104.66 41.6984C104.94 41.2124 105.033 40.6455 104.921 40.0972L97.6802 4.46074C97.4998 3.56983 96.8093 2.86582 95.9447 2.68514C95.9136 2.67891 95.8762 2.67268 95.8451 2.66645L80.524 0.0435576C80.1197 -0.0374345 79.7092 0.00617662 79.3297 0.14947ZM80.3685 4.64764L93.5187 6.89673L100.262 40.091L99.9631 40.5084C98.4577 42.5893 94.1096 47.8413 86.278 51.7414C85.3822 52.19 84.8846 53.1494 85.0401 54.14C85.2641 55.5979 90.9994 90.113 128.011 111.308C128.938 111.844 130.089 111.663 130.817 110.878C130.891 110.797 138.592 102.517 147.27 97.3213L147.948 96.9163L174.926 117.713L174.734 118.46C173.701 122.447 171.617 129.643 170.354 131.288L170.305 131.344C170.199 131.463 158.374 142.87 139.239 138.864C133.255 137.612 127.128 134.976 121.038 131.033C120.957 130.983 120.87 130.933 120.783 130.889C120.416 130.715 84.6171 113.121 67.2059 68.1205C63.0071 57.2738 60.9979 44.3961 59.5796 33.2316L59.561 33.0759L59.5858 32.9201C60.0897 29.425 63.4426 11.6254 80.0637 4.77848L80.3685 4.64764Z" fill="#DB332C"/>
<path d="M91.2542 38.8326C85.4629 30.1353 83.8704 13.3886 83.8082 12.6784C83.7522 12.0678 83.4661 11.5134 82.9995 11.1209C82.7072 10.8779 82.3651 10.7097 82.0043 10.6349C81.7865 10.5913 81.5626 10.5788 81.3324 10.5975C80.0759 10.7097 79.1491 11.8186 79.2548 13.0771C79.3232 13.831 80.953 31.6118 87.4534 41.3745C88.1252 42.3838 89.5995 42.6828 90.6197 42.0037C91.6709 41.2997 91.9571 39.8793 91.2542 38.8326Z" fill="#DB332C"/>
<path d="M141.354 111.264C141.603 111.601 147.668 119.706 162.61 127.693C162.803 127.793 163.008 127.868 163.219 127.911C164.202 128.117 165.222 127.637 165.701 126.746C165.987 126.204 166.05 125.588 165.869 125.002C165.689 124.416 165.297 123.937 164.762 123.65C150.896 116.242 145.08 108.61 145.024 108.536C144.278 107.533 142.853 107.321 141.839 108.062C140.832 108.816 140.614 110.249 141.354 111.264Z" fill="#DB332C"/>
<path d="M38.7784 151.96H37.4535C33.7274 151.96 30.7104 148.938 30.7104 145.206V96.3616C30.7104 92.6298 33.7274 89.6082 37.4535 89.6082H38.7784C43.8419 89.6082 47.9412 93.7201 47.9412 98.7852V142.783C47.9475 147.848 43.8419 151.96 38.7784 151.96Z" fill="#F88E86"/>
<path d="M50.6346 99.2586C50.6346 99.2586 62.3789 100.76 67.3118 92.6546C70.9881 86.6238 68.9913 74.0825 68.9913 74.0825C68.9913 74.0825 74.8199 65.46 80.3375 71.1108C85.8551 76.7615 82.6515 97.0095 83.4913 97.7198C84.3311 98.43 121.604 96.9846 124.192 99.6698C126.78 102.349 124.335 109.937 124.192 111.407C124.049 112.878 122.575 120.516 122.363 121.544C122.152 122.572 119.844 127.319 119.844 128.042C119.844 128.765 117.511 134.746 117.841 135.574C118.164 136.397 113.12 144.533 113.12 144.533C113.12 144.533 115.639 149.187 113.959 150.115C112.28 151.044 107.863 153.611 107.235 153.361C106.607 153.112 69.2028 153.38 69.2028 153.38C69.2028 153.38 63.9216 149.941 63.9465 149.193C64.0771 145.393 57.8504 142.384 57.8504 142.384L50.6284 140.652V99.2586H50.6346Z" fill="white"/>
<path d="M40.7131 137.518C40.7131 139.4 40.825 141.294 40.6758 143.163C40.57 144.533 39.1704 145.511 37.8579 145.374C36.6262 145.25 35.5936 144.602 35.4256 143.381C34.8782 139.45 34.9902 135.487 35.3448 131.543C35.463 130.185 36.8688 129.238 38.1751 129.319C39.5063 129.406 40.6571 130.403 40.7504 131.855C40.8686 133.736 40.7815 135.624 40.7815 137.512C40.7566 137.518 40.7317 137.518 40.7131 137.518Z" fill="#DB332C"/>
<path d="M128.689 102.392C127.439 99.4643 124.69 97.4582 121.343 97.0283C120.261 96.8913 119.11 96.9037 118.003 96.9224C117.623 96.9286 117.237 96.9349 116.864 96.9349C113.816 96.9286 110.768 96.9286 107.72 96.9286C101.723 96.9286 95.5279 96.9286 89.4318 96.8912C86.701 96.8788 86.0292 96.2308 85.9981 93.5955C85.9545 90.2187 85.9545 86.7859 85.9607 83.4715C85.9607 81.6959 85.9607 79.9141 85.9545 78.1385C85.9545 77.7522 85.9607 77.3659 85.9607 76.9797C85.9732 75.8707 85.9856 74.7306 85.855 73.6465C85.3947 69.8524 82.4524 66.7373 78.7076 66.0644C74.7327 65.3542 70.7516 67.3852 69.0285 71.0174C68.3007 72.5438 67.9648 74.2633 67.9835 76.2757L68.0021 77.5902C68.0395 80.3626 68.0768 83.2223 67.9337 86.0445C67.6849 90.8978 64.4751 95.072 59.9466 96.4364C57.2593 97.2464 54.5907 97.2775 52.2332 96.5237C50.8833 96.0938 50.4603 94.8664 50.0871 93.7824C49.9192 93.2964 49.7574 92.8354 49.5335 92.4741C48.7808 91.2779 47.9473 90.2437 47.0391 89.3714V151.916C48.3454 150.676 49.434 149.1 50.2799 147.175C51.1384 145.231 52.2829 144.384 54.0993 144.384C54.1678 144.384 54.2362 144.384 54.3046 144.39C54.8396 144.409 55.3683 144.409 55.9033 144.415C56.6933 144.421 57.5082 144.427 58.323 144.477C59.8409 144.577 60.9543 145.437 61.452 146.901C61.6013 147.331 61.6883 147.767 61.7754 148.184C61.8438 148.521 61.9061 148.838 61.9994 149.137C63.2808 153.405 65.4642 155.162 69.5386 155.193C79.0187 155.274 88.6666 155.255 97.9912 155.237C101.456 155.23 104.921 155.224 108.386 155.224C108.69 155.224 109.026 155.199 109.431 155.137C113.393 154.57 116.479 151.256 116.758 147.256C116.839 146.141 116.777 145.019 116.578 144.022C116.236 142.278 116.646 140.988 117.909 139.842C120.876 137.163 121.859 133.911 120.839 130.179C120.447 128.74 120.827 127.519 121.996 126.46C124.938 123.799 125.884 120.634 124.876 116.778C124.478 115.264 124.858 114.005 125.996 113.027C126.655 112.467 127.122 111.981 127.476 111.501C129.498 108.747 129.952 105.346 128.689 102.392ZM121.206 110.299C119.962 110.517 118.687 110.517 117.455 110.517H117.119C113.219 110.529 109.319 110.529 105.425 110.529C102.657 110.529 99.8884 110.529 97.1203 110.535H96.6102C95.4843 110.535 94.3149 110.535 93.1889 110.635C92.1252 110.735 91.2357 111.582 91.1548 112.56C91.0678 113.65 92.0941 114.716 93.3507 114.84C94.3957 114.94 95.4843 114.94 96.5356 114.934H97.2758C99.4468 114.94 101.618 114.934 103.795 114.934C106.955 114.934 110.115 114.934 113.275 114.946H113.561C114.811 114.952 116.099 114.952 117.368 115.158C119.128 115.445 120.491 117.089 120.615 119.071C120.733 120.958 119.794 122.591 118.102 123.432C116.827 124.067 115.533 124.055 114.283 124.055H113.891C111.334 124.061 108.778 124.061 106.221 124.061C103.067 124.061 99.9071 124.061 96.7533 124.067H96.6662C95.4034 124.073 94.0971 124.073 92.853 124.242C91.9386 124.366 91.3726 124.971 91.2482 125.942C91.1797 126.478 91.2357 127.288 92.5234 128.054C93.2512 128.491 94.1034 128.478 95.0053 128.466C95.1733 128.466 95.3475 128.466 95.5154 128.459C97.4935 128.466 99.4779 128.466 101.456 128.466C104.044 128.466 106.638 128.466 109.232 128.484C110.594 128.491 111.981 128.503 113.325 128.765C115.328 129.157 116.901 131.269 116.69 133.294C116.497 135.126 114.998 136.783 113.275 137.063C111.863 137.294 110.42 137.331 109.194 137.337C106.743 137.35 104.286 137.35 101.835 137.35C98.6319 137.35 95.3164 137.35 92.0568 137.375C90.5577 137.387 89.3385 137.543 88.3183 137.842C87.2359 138.16 87.1488 139.25 87.1924 139.867C87.2484 140.633 87.6278 141.181 88.3494 141.549C89.2763 142.016 90.3089 142.01 91.4037 141.998C91.5903 141.998 91.7769 141.998 91.9697 141.998C93.6555 142.004 95.3412 142.004 97.027 141.998C99.7205 141.998 102.42 141.991 105.114 142.016C106.345 142.029 107.795 142.072 109.201 142.346C110.998 142.695 112.305 144.384 112.305 146.359C112.305 148.072 111.104 150.147 109.312 150.502C107.925 150.776 106.47 150.807 105.213 150.813C101.176 150.838 97.139 150.832 93.0956 150.826L87.9637 150.819C86.4895 150.819 85.0214 150.826 83.5472 150.826C81.8739 150.832 80.1819 150.832 78.4775 150.832C76.151 150.832 73.8121 150.826 71.4918 150.801C67.5916 150.757 67.3365 150.358 66.1733 146.726C66.1049 146.521 66.0427 146.309 65.9805 146.103C65.825 145.58 65.6757 145.088 65.4766 144.614C64.3507 141.973 62.4161 140.446 59.5547 139.948C58.7647 139.811 58.068 139.749 57.4086 139.755C54.5907 139.786 53.0792 139.761 52.227 138.914C51.4307 138.122 51.4307 136.883 51.4432 134.64V133.699C51.4307 126.148 51.4307 118.603 51.437 111.052V107.102C51.437 106.05 51.437 104.966 51.5116 103.894C51.6173 102.436 52.5069 101.508 53.8878 101.421C54.8707 101.358 55.8411 101.296 56.8052 101.333C60.7117 101.477 64.8795 99.6948 67.9337 96.5797C71.0502 93.3961 72.6364 89.3029 72.4063 85.0477C72.3067 83.1787 72.3378 81.2847 72.3627 79.453C72.3752 78.6369 72.3876 77.8145 72.3938 76.9984C72.4 75.7399 72.4 74.1761 73.2398 72.7743C74.1542 71.2355 75.4294 70.4505 77.0343 70.4318C77.0467 70.4318 77.0592 70.4318 77.0716 70.4318C78.8383 70.4318 80.7168 71.8024 81.1772 73.4409C81.4135 74.2758 81.5317 75.2601 81.538 76.4376C81.5504 78.8363 81.5504 81.2286 81.5504 83.6272C81.5504 86.7112 81.5442 89.8948 81.5753 93.0286C81.5939 94.7294 81.3513 96.4489 79.5101 97.533C79.3857 97.6077 79.2239 97.8818 79.0995 98.075L79.0373 98.1809C78.6765 98.7728 78.6454 99.5391 78.9564 100.181C79.2239 100.735 79.6905 101.097 80.2379 101.171C81.4446 101.333 82.7199 101.327 83.9515 101.321H84.7104C95.3723 101.333 106.041 101.321 116.702 101.34H116.858C118.345 101.34 119.881 101.346 121.368 101.626C123.358 102 124.938 103.975 124.882 106.037C124.839 108.043 123.184 109.956 121.206 110.299Z" fill="#DB332C"/>
<path d="M28.0667 72.494C17.7282 74.4689 15.9616 76.7305 14.4189 89.9633C14.3754 90.3558 13.9275 90.3558 13.884 89.9633C12.3413 76.7305 10.5747 74.4689 0.236198 72.494C-0.0748265 72.4379 -0.0748265 71.8647 0.236198 71.8087C10.5747 69.8337 12.3413 67.5722 13.884 54.3393C13.9275 53.9468 14.3754 53.9468 14.4189 54.3393C15.9616 67.5722 17.7282 69.8337 28.0667 71.8087C28.3777 71.8647 28.3777 72.4317 28.0667 72.494Z" fill="#F88E86"/>
<path d="M124.683 24.9456C119.253 25.9798 118.326 27.1698 117.517 34.1164C117.493 34.322 117.262 34.322 117.238 34.1164C116.429 27.1698 115.502 25.9798 110.071 24.9456C109.91 24.9145 109.91 24.6154 110.071 24.5843C115.502 23.5501 116.429 22.3601 117.238 15.4135C117.262 15.2079 117.493 15.2079 117.517 15.4135C118.326 22.3601 119.253 23.5501 124.683 24.5843C124.845 24.6154 124.845 24.9145 124.683 24.9456Z" fill="#F88E86"/>
<path d="M198.844 108.897C191.784 110.249 190.577 111.794 189.52 120.828C189.489 121.095 189.184 121.095 189.153 120.828C188.101 111.788 186.895 110.242 179.828 108.897C179.617 108.859 179.617 108.467 179.828 108.43C186.888 107.078 188.095 105.533 189.153 96.4988C189.184 96.2309 189.489 96.2309 189.52 96.4988C190.571 105.539 191.778 107.084 198.844 108.43C199.056 108.467 199.056 108.853 198.844 108.897Z" fill="#F88E86"/>
<path d="M46.0688 155.131H32.8627C30.3434 155.131 28.2969 153.081 28.2969 150.558V91.5458C28.2969 89.0226 30.3434 86.9729 32.8627 86.9729H46.0688C48.5881 86.9729 50.6347 89.0226 50.6347 91.5458V150.558C50.6347 153.081 48.5881 155.131 46.0688 155.131Z" fill="#F88E86"/>
<path d="M46.069 157H27.8553C24.3097 157 21.4233 154.109 21.4233 150.558V91.546C21.4233 87.9948 24.3097 85.104 27.8553 85.104H46.069C49.6146 85.104 52.501 87.9948 52.501 91.546V150.558C52.501 154.109 49.6146 157 46.069 157ZM27.8553 88.8421C26.3686 88.8421 25.1556 90.057 25.1556 91.546V150.558C25.1556 152.047 26.3686 153.262 27.8553 153.262H46.069C47.5557 153.262 48.7687 152.047 48.7687 150.558V91.546C48.7687 90.057 47.5557 88.8421 46.069 88.8421H27.8553Z" fill="#DB332C"/>
<path d="M36.4145 149.505C35.3819 149.505 34.5483 148.67 34.5483 147.636V135.736C34.5483 134.702 35.3819 133.867 36.4145 133.867C37.4471 133.867 38.2806 134.702 38.2806 135.736V147.636C38.2806 148.67 37.4409 149.505 36.4145 149.505Z" fill="#DB332C"/>
</g>
<defs>
<clipPath id="clip0">
<rect fill="white" height="157" width="199"/>
</clipPath>
</defs>
</svg>