<?xml version="1.0" encoding="utf-8"?>
<svg xmlns="http://www.w3.org/2000/svg" fill="none" height="175" viewBox="0 0 158 175" width="158">
<g clip-path="url(#clip0)">
<path d="M50.2021 118.492V86.7599C50.2021 75.6935 41.2348 66.7161 30.1658 66.7161C28.571 66.7161 27.2803 68.0073 27.2803 69.6026V95.4129V149.21V155.274C27.2803 155.274 45.3096 166.597 48.3641 167.638C51.4185 168.679 86.9771 176.19 93.0252 172.147C99.0733 168.105 110.886 146.31 111.406 143.707C111.926 141.098 64.4945 140.895 59.8588 141.869C55.2298 142.835 54.3581 143.532 55.2298 140.239C56.0948 136.947 57.8045 132.046 55.8785 128.193C53.3242 123.062 50.2021 118.492 50.2021 118.492Z" fill="white"/>
<path d="M116.434 63.8294C111.643 63.8294 107.25 60.6183 105.966 55.778C104.439 50.0049 107.886 44.0627 113.657 42.5349L144.397 34.3754C147.195 33.6318 150.107 34.0239 152.608 35.4773C155.108 36.9307 156.892 39.2697 157.635 42.0684C158.379 44.8671 157.987 47.7808 156.534 50.282C155.081 52.7833 152.743 54.568 149.945 55.3116L119.205 63.4711C118.286 63.7077 117.353 63.8294 116.434 63.8294ZM147.174 37.6946C146.573 37.6946 145.958 37.769 145.343 37.9312L114.603 46.0907C110.798 47.098 108.521 51.0189 109.528 54.8316C110.535 58.6376 114.454 60.9157 118.265 59.9085L149.006 51.749C150.851 51.2623 152.391 50.0792 153.351 48.4297C154.31 46.7803 154.567 44.8536 154.081 43.0081C153.229 39.8106 150.33 37.6946 147.174 37.6946Z" fill="#DB332C"/>
<path d="M52.9795 132.208V14.6493C52.9795 9.31551 57.3044 4.98901 62.6362 4.98901H59.8588C54.527 4.98901 50.2021 9.31551 50.2021 14.6493V132.208C50.2021 137.542 54.527 141.869 59.8588 141.869H62.6362C57.3044 141.869 52.9795 137.542 52.9795 132.208Z" fill="white"/>
<path d="M119.448 95.3316C119.049 95.4128 118.643 95.5006 118.231 95.5885C116.494 95.9806 114.636 95.7035 115.021 93.4253C115.055 93.236 115.15 93.067 115.271 92.925C114.677 92.56 114.231 92.0124 114.008 91.208C113.778 90.3494 113.974 89.376 114.474 88.6256C114.001 87.8617 114.379 86.4759 115.589 86.3407C117.245 86.1514 118.893 86.273 120.556 86.2528C121.536 86.2393 122.495 86.0162 123.462 85.8945V79.1817C122.772 79.2898 122.069 79.3439 121.394 79.425C119.887 79.6075 117.738 79.9456 116.292 79.3574C115.501 79.0397 114.933 78.3772 114.541 77.5592C114.501 77.5389 114.467 77.5254 114.427 77.5051C113.704 77.1401 113.595 76.214 113.96 75.5785C113.771 74.3414 113.839 73.0637 114.089 72.1443C114.278 71.448 114.582 70.9208 114.974 70.5151C114.068 69.7242 114.318 67.899 115.751 68.0815C116.704 68.2032 117.697 67.9868 118.65 67.9328C119.488 67.8854 120.306 67.8043 121.13 67.6556C121.867 67.5204 122.664 67.3379 123.455 67.3108V14.6493C123.455 9.31551 119.157 4.98901 113.852 4.98901H62.9673C57.6626 4.98901 53.3647 9.31551 53.3647 14.6493V132.208C53.3647 137.542 57.6626 141.869 62.9673 141.869H113.872C119.177 141.869 123.475 137.542 123.475 132.208V95.0342C122.178 95.406 120.813 95.3993 119.448 95.3316Z" fill="#F88E86"/>
<path d="M121.63 86.165C122.691 86.0298 123.739 85.7729 124.8 85.827C124.989 85.8338 125.158 85.8811 125.313 85.9555V78.6951C124.164 79.175 122.86 79.2629 121.63 79.3981V86.165Z" fill="#DB332C"/>
<path d="M124.435 94.676C123.536 95.0884 122.59 95.2709 121.63 95.3385V132.208C121.63 136.521 118.123 140.03 113.812 140.03H59.8589C55.5475 140.03 52.0403 136.521 52.0403 132.208V14.6493C52.0403 10.3364 55.5475 6.82784 59.8589 6.82784H113.812C118.123 6.82784 121.63 10.3364 121.63 14.6493V67.5678C122.766 67.3515 124.009 67.1284 125.09 67.5475C125.165 67.5745 125.239 67.6083 125.313 67.6421V14.6493C125.313 8.30831 120.157 3.14355 113.812 3.14355H59.8589C53.5203 3.14355 48.3574 8.30155 48.3574 14.6493V132.208C48.3574 138.549 53.5135 143.714 59.8589 143.714H113.812C120.15 143.714 125.313 138.556 125.313 132.208V94.1419C125.05 94.3515 124.759 94.5273 124.435 94.676Z" fill="#DB332C"/>
<path d="M115.494 124.319H58.1829C57.1692 124.319 56.3516 123.447 56.3516 122.373V22.64C56.3516 21.5652 57.1692 20.6931 58.1829 20.6931H115.494C116.508 20.6931 117.326 21.5652 117.326 22.64V122.373C117.326 123.447 116.508 124.319 115.494 124.319Z" fill="white"/>
<path d="M116.258 79.3575C115.974 79.2426 115.711 79.0803 115.481 78.8843V86.3475C115.501 86.3407 115.528 86.3407 115.549 86.334C116.751 86.1988 117.954 86.2258 119.164 86.2393V79.6617C118.137 79.7225 117.083 79.6887 116.258 79.3575Z" fill="#DB332C"/>
<path d="M118.211 95.5887C117.184 95.8186 116.116 95.8118 115.488 95.3048V122.372C115.488 122.427 115.467 122.46 115.461 122.474H58.2235C58.21 122.46 58.1965 122.427 58.1965 122.372V22.6399C58.1965 22.5859 58.2168 22.5521 58.2235 22.5385H115.461C115.474 22.5521 115.488 22.5859 115.488 22.6399V68.0749C115.562 68.0749 115.643 68.0749 115.724 68.0884C116.677 68.2101 117.677 67.9938 118.643 67.9397C118.819 67.9329 118.995 67.9194 119.171 67.9059V22.6399C119.171 20.551 117.522 18.8542 115.494 18.8542H58.183C56.1557 18.8542 54.5068 20.551 54.5068 22.6399V122.372C54.5068 124.461 56.1557 126.158 58.183 126.158H115.494C117.522 126.158 119.171 124.461 119.171 122.372V95.3859C118.853 95.4535 118.535 95.5143 118.211 95.5887Z" fill="#DB332C"/>
<path d="M95.0731 16.1568H80.2941C79.2805 16.1568 78.4561 15.332 78.4561 14.318C78.4561 13.304 79.2805 12.4792 80.2941 12.4792H95.0731C96.0867 12.4792 96.9111 13.304 96.9111 14.318C96.9179 15.332 96.0935 16.1568 95.0731 16.1568Z" fill="#DB332C"/>
<path d="M75.0568 16.1568C74.577 16.1568 74.0972 15.9607 73.7594 15.616C73.6715 15.5281 73.5972 15.4402 73.5296 15.3388C73.462 15.2374 73.4012 15.1292 73.3607 15.0211C73.3134 14.9129 73.2728 14.7912 73.2525 14.6763C73.2255 14.5614 73.2188 14.4397 73.2188 14.318C73.2188 14.1963 73.2323 14.0746 73.2525 13.9597C73.2728 13.8448 73.3134 13.7299 73.3607 13.615C73.408 13.5068 73.462 13.3986 73.5296 13.2972C73.5972 13.1958 73.6715 13.1012 73.7594 13.0201C74.104 12.6753 74.577 12.4792 75.0568 12.4792C75.5434 12.4792 76.0164 12.6753 76.361 13.0201C76.4489 13.1079 76.5232 13.2026 76.5908 13.2972C76.6584 13.3986 76.7124 13.5068 76.7597 13.615C76.807 13.7299 76.8408 13.8448 76.8679 13.9597C76.8881 14.0746 76.9017 14.1963 76.9017 14.318C76.9017 14.4329 76.8881 14.5546 76.8679 14.6763C76.8408 14.7912 76.807 14.9129 76.7597 15.0211C76.7124 15.1292 76.6584 15.2374 76.5908 15.3388C76.5232 15.4402 76.4489 15.5348 76.361 15.616C76.0164 15.954 75.5434 16.1568 75.0568 16.1568Z" fill="#DB332C"/>
<path d="M27.2805 157.119C26.2668 157.119 25.4424 156.295 25.4424 155.281V69.6025C25.4424 66.993 27.5643 64.8704 30.1727 64.8704C42.2351 64.8704 52.0471 74.6861 52.0471 86.753V118.485C52.0471 119.499 51.2227 120.324 50.2091 120.324C49.1954 120.324 48.371 119.499 48.371 118.485V86.753C48.371 76.7141 40.2078 68.5546 30.1795 68.5546C29.6051 68.5546 29.132 69.0211 29.132 69.6025V155.274C29.1253 156.295 28.3009 157.119 27.2805 157.119Z" fill="#DB332C"/>
<path d="M46.5061 112.252C52.5407 117.539 56.352 125.306 56.352 133.959C56.352 138.671 55.2235 143.119 53.2164 147.047H43.9585V112.246H46.5061V112.252Z" fill="white"/>
<path d="M53.2166 148.899C52.9328 148.899 52.649 148.832 52.3787 148.696C51.4731 148.237 51.115 147.128 51.5745 146.222C53.5207 142.409 54.5073 138.286 54.5073 133.966C54.5073 126.185 51.1488 118.776 45.2899 113.645C44.5263 112.976 44.4452 111.813 45.121 111.049C45.79 110.285 46.9523 110.211 47.7159 110.88C54.3722 116.714 58.1835 125.131 58.1835 133.973C58.1835 138.874 57.0617 143.559 54.852 147.899C54.5343 148.527 53.8856 148.899 53.2166 148.899Z" fill="#DB332C"/>
<path d="M39.5726 86.5502H27.2805C26.2668 86.5502 25.4424 85.7255 25.4424 84.7115V72.4215C25.4424 71.4075 26.2668 70.5828 27.2805 70.5828C35.072 70.5828 41.4106 76.9238 41.4106 84.7182C41.4106 85.7255 40.5862 86.5502 39.5726 86.5502ZM29.1253 82.8659H37.5656C36.8019 78.5733 33.4096 75.1864 29.1253 74.4158V82.8659Z" fill="#DB332C"/>
<path d="M107.5 111.502C107.027 107.419 109.96 103.728 114.042 103.255L124.009 102.105C128.091 101.632 131.78 104.566 132.253 108.649C132.726 112.732 129.794 116.423 125.712 116.897L115.745 118.046C111.663 118.519 107.967 115.585 107.5 111.502Z" fill="white"/>
<path d="M114.873 119.939C112.791 119.939 110.778 119.242 109.122 117.924C107.183 116.383 105.953 114.179 105.669 111.712C105.081 106.628 108.744 102.011 113.825 101.423L123.793 100.273C128.881 99.6853 133.49 103.349 134.078 108.433C134.666 113.517 131.003 118.134 125.921 118.722L115.954 119.871C115.589 119.918 115.231 119.939 114.873 119.939ZM109.325 111.292C109.494 112.78 110.237 114.111 111.406 115.038C112.575 115.97 114.042 116.383 115.528 116.214L125.496 115.065C128.564 114.713 130.773 111.928 130.415 108.859C130.064 105.79 127.28 103.579 124.212 103.937L114.244 105.087C111.183 105.438 108.973 108.223 109.325 111.292Z" fill="#DB332C"/>
<path d="M114.954 114.76C113.258 114.76 111.791 113.483 111.595 111.759L111.426 110.312C111.325 109.413 111.575 108.528 112.136 107.818C112.697 107.108 113.501 106.662 114.4 106.56L115.184 106.473C116.082 106.371 116.968 106.621 117.677 107.182C118.387 107.743 118.833 108.548 118.934 109.447L119.103 110.894C119.204 111.793 118.954 112.678 118.393 113.388C117.833 114.098 117.028 114.544 116.13 114.646L115.346 114.733C115.217 114.754 115.089 114.76 114.954 114.76ZM114.616 108.392C114.204 108.44 113.839 108.643 113.582 108.967C113.325 109.291 113.21 109.69 113.258 110.103L113.427 111.549C113.521 112.394 114.292 113.003 115.136 112.908L115.92 112.82C116.332 112.773 116.697 112.57 116.954 112.246C117.211 111.921 117.326 111.522 117.278 111.11L117.11 109.663C117.062 109.251 116.859 108.886 116.535 108.629C116.211 108.372 115.805 108.257 115.4 108.305L114.616 108.392Z" fill="#DB332C"/>
<path d="M92.8903 173.371C92.3767 173.371 91.8631 173.155 91.4982 172.735C90.8359 171.965 90.917 170.802 91.6874 170.14C100.013 162.927 106.149 153.591 109.44 143.146C109.744 142.173 110.778 141.639 111.751 141.943C112.724 142.247 113.258 143.282 112.954 144.255C109.46 155.355 102.946 165.272 94.0999 172.932C93.7417 173.222 93.316 173.371 92.8903 173.371Z" fill="#DB332C"/>
<path d="M86.8355 128.335C84.2338 128.335 82.1187 130.451 82.1187 133.053C82.1187 135.656 84.227 137.772 86.8355 137.772C89.4372 137.772 91.5523 135.663 91.5523 133.053C91.5523 130.444 89.4439 128.335 86.8355 128.335Z" fill="#DB332C"/>
<path d="M78.6655 175C65.0624 175 51.5404 171.694 39.5658 165.441C27.9765 159.391 17.786 150.576 10.0958 139.962C9.50118 139.137 9.68363 137.988 10.5081 137.393C11.3325 136.798 12.4813 136.981 13.076 137.806C28.2739 158.796 52.7973 171.323 78.6655 171.323C89.5925 171.323 100.195 169.18 110.17 164.961C111.109 164.562 112.183 165.002 112.582 165.941C112.981 166.881 112.541 167.956 111.602 168.355C101.175 172.762 90.0926 175 78.6655 175Z" fill="#F88E86"/>
<path d="M73.7461 99.2052C73.5839 99.4013 73.3541 99.5297 73.0838 99.5568C72.5432 99.6108 72.0634 99.212 72.0161 98.6779L71.5093 92.8372C71.4552 92.2964 71.8539 91.8164 72.3878 91.7691C72.9284 91.715 73.4082 92.1138 73.4555 92.6479L73.9623 98.4887C73.9894 98.7591 73.9083 99.0159 73.7461 99.2052Z" fill="#F88E86"/>
<path d="M68.8601 91.7015L64.6163 96.4877C64.2514 96.8933 63.6365 96.9204 63.231 96.5621C62.8256 96.2038 62.7985 95.5819 63.1567 95.1763L67.4005 90.3901C67.7654 89.9845 68.3803 89.9574 68.7858 90.3157C69.1913 90.6808 69.225 91.3027 68.8601 91.7015Z" fill="#F88E86"/>
<path d="M102.763 51.0933C102.297 51.2758 101.777 51.046 101.594 50.5795L100.094 45.5432C99.9114 45.0767 100.141 44.5562 100.607 44.3737C101.074 44.1912 101.594 44.421 101.777 44.8875L103.277 49.9238C103.459 50.3902 103.229 50.9175 102.763 51.0933Z" fill="#F6A0A2"/>
<path d="M107.96 50.8093C107.75 50.9107 107.507 50.9378 107.271 50.8634C106.798 50.7079 106.541 50.1942 106.696 49.721L108.345 44.6373C108.501 44.1641 109.014 43.9072 109.487 44.0627C109.96 44.2182 110.217 44.732 110.062 45.2052L108.413 50.2888C108.332 50.5254 108.163 50.7079 107.96 50.8093Z" fill="#F6A0A2"/>
<path d="M80.9565 79.7156L72.2999 76.8763C71.3336 76.5586 70.3267 76.6667 69.4888 77.0994L80.2199 80.6147L80.9565 79.7156Z" fill="#F05E53"/>
<path d="M82.9633 81.5205L83.7066 80.6147L80.9562 79.7156L80.2129 80.6147L82.9633 81.5205Z" fill="#F05E53"/>
<path d="M105.912 57.8397L106.682 56.9068C106.993 56.5282 107.365 56.2308 107.764 56.0145C106.662 55.4128 105.344 55.4331 104.27 56.0145C104.473 56.1226 104.669 56.2511 104.851 56.3998C105.331 56.7986 105.689 57.2989 105.912 57.8397Z" fill="white"/>
<path d="M82.3755 89.0379L83.058 89.2609C83.4364 89.3826 83.8149 89.4435 84.2 89.4435C84.7812 89.4435 85.3556 89.3015 85.8692 89.0379L83.4229 88.2334C83.1188 88.5714 82.7674 88.8351 82.3755 89.0379Z" fill="#F05E53"/>
<path d="M69.482 77.0994L68.7995 76.8763C67.8331 76.5586 66.8262 76.6667 65.9883 77.0994L68.4413 77.9038C68.7386 77.5726 69.0968 77.3022 69.482 77.0994Z" fill="#F05E53"/>
<path d="M83.4228 88.2333L70.0157 83.8392C68.0965 83.2105 67.0491 81.1419 67.6775 79.2153C67.8397 78.7083 68.11 78.2689 68.4411 77.9038L65.9881 77.0994C65.1569 77.5253 64.4947 78.2621 64.1771 79.2153C63.5486 81.1352 64.596 83.2105 66.5152 83.8392L82.3686 89.0378C82.7673 88.835 83.1187 88.5713 83.4228 88.2333Z" fill="white"/>
<path d="M68.4409 77.9039L79.4694 81.5206L80.2127 80.6215L69.4816 77.1062C69.0964 77.3022 68.7383 77.5727 68.4409 77.9039Z" fill="#F05E53"/>
<path d="M105.723 55.7238C103.676 56.0483 102.344 57.5355 101.351 59.2459C100.567 59.4554 99.871 60.0165 99.5399 60.9967C98.9249 62.8423 98.1613 65.6748 96.6138 66.993C95.7759 67.7028 94.8163 67.98 94.0797 68.8588C93.6878 69.332 93.4107 69.9539 93.0863 70.515C92.5998 70.8125 92.1403 71.1505 91.6875 71.5493C91.0726 72.0834 90.8428 72.8811 90.9239 73.6585C90.3968 74.2061 89.8629 74.7469 89.3358 75.2877C88.7817 75.6325 88.3222 76.1192 87.9843 76.7884C87.7951 77.1738 87.7005 77.5591 87.687 77.9309C86.6125 79.2153 85.4367 80.351 83.9771 81.338C83.6797 81.5408 83.4094 81.7639 83.1661 82.0073C83.0986 81.987 83.0377 81.9735 82.9634 81.96C78.0168 81.1082 73.1649 79.7156 68.5697 77.6875C67.2452 77.1062 65.6909 77.3022 64.9003 78.6475C64.2313 79.79 64.5286 81.7301 65.8599 82.3183C70.1374 84.2111 74.5434 85.678 79.1048 86.6583C79.6927 87.4154 80.6185 87.9021 81.6727 87.6588C82.0173 87.7872 82.3552 87.9968 82.6999 88.1387C83.4229 88.443 84.1122 88.5984 84.9028 88.6052C86.768 88.6255 87.7275 86.9557 87.4707 85.4482C87.687 85.313 87.9032 85.1778 88.106 85.0223C88.9101 84.4274 89.6737 83.7784 90.363 83.0551C91.6537 81.7031 92.7552 80.1685 93.8499 78.6543C93.9919 78.4514 94.1 78.2351 94.1608 78.012C95.4312 76.6938 96.6949 75.3688 97.9315 74.01C98.4924 73.3949 98.6952 72.6445 98.6411 71.9279C99.0533 71.6778 99.5399 71.4817 99.8913 71.2113C100.763 70.5285 101.479 69.6497 102.087 68.6695C102.371 68.683 102.682 68.656 103.007 68.5613C104.824 68.0543 106.115 66.1885 107.122 64.6945C108.19 63.1127 109.284 61.0441 109.528 59.1309C109.818 56.8595 107.899 55.3791 105.723 55.7238Z" fill="#F88E86"/>
<path d="M84.2068 90.7887C83.6797 90.7887 83.1526 90.7076 82.6458 90.5386L66.1031 85.117C63.4812 84.2584 62.0418 81.4259 62.9068 78.7962C63.765 76.1733 66.5964 74.7401 69.2251 75.5987L82.5106 79.9522L102.148 56.0483C103 55.014 104.196 54.3718 105.527 54.2434C106.858 54.1149 108.163 54.507 109.196 55.3588C111.325 57.1097 111.636 60.2734 109.886 62.4096L88.0722 88.9567C87.1193 90.1195 85.707 90.7887 84.2068 90.7887ZM67.6641 78.0391C66.691 78.0391 65.7788 78.661 65.4611 79.6345C65.0624 80.8513 65.7247 82.1628 66.9411 82.5616L83.4837 87.9833C83.7202 88.0576 83.9635 88.0982 84.2068 88.0982C84.9028 88.0982 85.5583 87.7872 85.9976 87.2532L107.811 60.7061C108.622 59.7191 108.48 58.2521 107.494 57.4409C107.014 57.0488 106.412 56.8663 105.797 56.9271C105.182 56.988 104.622 57.2854 104.23 57.7654L84.0108 82.3791C83.6594 82.805 83.0783 82.974 82.5512 82.805L68.3872 78.1608C68.1439 78.0729 67.9074 78.0391 67.6641 78.0391Z" fill="#DB332C"/>
<path d="M156.594 12.7091C149.465 14.0679 148.249 15.6295 147.188 24.7421C147.154 25.0126 146.85 25.0126 146.816 24.7421C145.755 15.6295 144.532 14.0746 137.41 12.7091C137.2 12.6685 137.2 12.2764 137.41 12.2359C144.539 10.8771 145.755 9.31549 146.816 0.202805C146.85 -0.0676015 147.154 -0.0676015 147.188 0.202805C148.249 9.31549 149.472 10.8703 156.594 12.2359C156.804 12.2764 156.804 12.6685 156.594 12.7091Z" fill="#F88E86"/>
<path d="M12.2178 104.133C7.70372 104.931 6.91983 105.904 6.16973 111.651C6.14946 111.82 5.95349 111.82 5.93322 111.651C5.33855 105.884 4.58845 104.89 0.0946309 103.971C-0.0405216 103.944 -0.0337639 103.694 0.101389 103.674C4.61548 102.876 5.39937 101.902 6.14946 96.1563C6.16973 95.9873 6.36571 95.9873 6.38598 96.1563C6.98065 101.923 7.73075 102.916 12.2246 103.836C12.3597 103.856 12.353 104.106 12.2178 104.133Z" fill="#F88E86"/>
<path d="M35.5316 39.7633C28.0373 41.0139 26.7602 42.4336 25.6654 50.7215C25.6316 50.9716 25.3073 50.9716 25.2735 50.7215C24.1382 42.4403 22.8542 41.0275 15.3533 39.8106C15.1303 39.7768 15.1303 39.4185 15.3533 39.378C22.8475 38.1273 24.1247 36.7077 25.2194 28.4198C25.2532 28.1696 25.5776 28.1696 25.6114 28.4198C26.7466 36.701 28.0306 38.1138 35.5316 39.3307C35.7546 39.3712 35.7546 39.7295 35.5316 39.7633Z" fill="#F88E86"/>
<path d="M116.285 96.9405C112.988 96.8256 110.217 94.25 109.94 90.8767C109.798 89.119 110.345 87.4155 111.487 86.0702C112.63 84.7249 114.224 83.907 115.981 83.765L122.948 83.2039C124.705 83.0619 126.408 83.6095 127.753 84.752C129.098 85.8945 129.916 87.4898 130.057 89.2475C130.199 91.0051 129.652 92.7087 128.51 94.054C127.368 95.3992 125.773 96.2172 124.016 96.3592L117.049 96.9203C116.785 96.9473 116.535 96.9541 116.285 96.9405ZM123.611 86.0094C123.469 86.0026 123.32 86.0094 123.178 86.0229L116.211 86.584C115.204 86.6651 114.292 87.1316 113.643 87.9022C112.988 88.6729 112.677 89.6463 112.758 90.6536C112.927 92.729 114.751 94.277 116.826 94.1148L123.793 93.5537C125.868 93.3847 127.415 91.5595 127.253 89.4841C127.084 87.5507 125.503 86.077 123.611 86.0094Z" fill="#DB332C"/>
<path d="M116.414 93.3847C115.846 93.3644 115.306 93.1549 114.866 92.7831C114.353 92.3437 114.035 91.7353 113.981 91.0592L113.907 90.1534C113.853 89.4774 114.062 88.8216 114.501 88.3079C114.941 87.7941 115.549 87.4764 116.225 87.4223L116.65 87.3885C117.326 87.3344 117.982 87.544 118.495 87.9834C119.009 88.4228 119.326 89.0312 119.38 89.7072L119.455 90.6131C119.57 92.0057 118.529 93.2292 117.137 93.3442L116.711 93.378C116.61 93.3847 116.515 93.3847 116.414 93.3847ZM116.9 88.7878C116.86 88.7878 116.813 88.7878 116.772 88.7878L116.34 88.8216C116.042 88.8487 115.772 88.9839 115.576 89.2137C115.38 89.4436 115.285 89.7342 115.312 90.0317L115.387 90.9376C115.414 91.235 115.549 91.5054 115.779 91.7014C116.008 91.8975 116.299 91.9921 116.596 91.9651L117.022 91.9313C117.319 91.9043 117.59 91.7691 117.786 91.5392C117.982 91.3094 118.076 91.0187 118.049 90.7212L117.975 89.8154C117.948 89.5179 117.813 89.2475 117.583 89.0515C117.394 88.8892 117.157 88.8013 116.9 88.7878Z" fill="#DB332C"/>
<path d="M116.995 82.1561C115.346 82.102 113.771 81.4936 112.494 80.4052C111.001 79.1343 110.088 77.3496 109.926 75.3959C109.771 73.4355 110.379 71.5359 111.656 70.0351C112.927 68.5411 114.711 67.6285 116.664 67.4663L124.651 66.8173C126.611 66.6618 128.51 67.2702 130.01 68.5479C131.503 69.8188 132.416 71.6035 132.578 73.5572C132.733 75.5176 132.125 77.4172 130.848 78.918C129.577 80.412 127.793 81.3246 125.84 81.4868L117.853 82.1358C117.562 82.1561 117.278 82.1628 116.995 82.1561ZM112.737 75.1661C112.832 76.3762 113.4 77.4713 114.319 78.2555C115.238 79.0397 116.413 79.4182 117.623 79.3236L125.611 78.6746C126.82 78.58 127.915 78.0121 128.699 77.0927C129.483 76.1666 129.861 74.9971 129.767 73.787C129.672 72.5769 129.104 71.4818 128.185 70.6976C127.266 69.9134 126.09 69.5349 124.881 69.6295L116.893 70.2785C115.684 70.3731 114.589 70.941 113.805 71.8604C113.021 72.7865 112.643 73.956 112.737 75.1661Z" fill="#DB332C"/>
<path d="M117.555 78.6273C115.792 78.5665 114.305 77.1874 114.163 75.3825L114.109 74.72C113.954 72.7798 115.4 71.0695 117.346 70.914C118.285 70.8396 119.198 71.1303 119.921 71.7455C120.637 72.3539 121.076 73.2124 121.151 74.1521L121.205 74.8146C121.36 76.7548 119.914 78.4651 117.968 78.6206C117.826 78.6273 117.691 78.6341 117.555 78.6273ZM117.454 72.3269C116.292 72.4215 115.42 73.449 115.515 74.6118L115.569 75.2743C115.663 76.437 116.691 77.3091 117.853 77.2144C119.015 77.1198 119.887 76.0923 119.792 74.9295L119.738 74.267C119.691 73.6992 119.427 73.1922 119.002 72.8204C118.569 72.4553 118.022 72.2795 117.454 72.3269Z" fill="#DB332C"/>
</g>
<defs>
<clipPath id="clip0">
<rect fill="white" height="175" width="158"/>
</clipPath>
</defs>
</svg>