<?xml version="1.0" encoding="utf-8"?>
<svg xmlns="http://www.w3.org/2000/svg" fill="none" height="191" viewBox="0 0 132 191" width="132">
<path d="M90.2159 41.2634L75.7969 42.6438L76.3983 49.0747L90.8173 47.6942L90.2159 41.2634Z" fill="#F88E86"/>
<path d="M87.0313 49.1762L76.501 50.1843L78.2913 69.3265L88.8216 68.3184L87.0313 49.1762Z" fill="#F88E86"/>
<path d="M34.6455 46.5832L22.3433 47.761L22.9447 54.1918L35.247 53.0141L34.6455 46.5832Z" fill="#F88E86"/>
<path d="M34.7582 54.1812L26.3149 54.9895L28.1053 74.1317L36.5486 73.3234L34.7582 54.1812Z" fill="#F88E86"/>
<path d="M69.91 2.16445L35.1558 5.4917L41.517 73.506L76.2712 70.1788L69.91 2.16445Z" fill="#F88E86"/>
<path d="M89.9036 39.2792L76.0943 40.6026L72.439 1.52277C72.3553 0.604235 71.543 -0.0725768 70.6352 0.0120247L31.2084 3.78283C30.3005 3.86744 29.6315 4.68928 29.7152 5.60781L33.3705 44.6877L19.5613 46.0111C18.6534 46.0957 17.9845 46.9175 18.0681 47.836L18.6594 54.1509C18.743 55.0695 19.5553 55.7463 20.4632 55.6617L21.6518 55.5469L23.5333 75.6881C23.6169 76.6066 24.4292 77.2834 25.3371 77.1988L90.0111 71.0048C90.919 70.9202 91.5879 70.0983 91.5043 69.1798L89.6228 49.0386L90.8114 48.9238C91.7193 48.8392 92.3883 48.0173 92.3047 47.0988L91.7133 40.7839C91.6238 39.8654 90.8114 39.1886 89.9036 39.2792ZM35.9986 72.8116L26.3226 73.7362L24.68 56.1512L34.3561 55.2266L35.9986 72.8116ZM34.0694 52.1628L20.738 53.4379L20.2721 48.4403L33.6035 47.1653L34.0694 52.1628ZM33.1675 6.96143L69.2972 3.49882L69.6138 6.8587L33.484 10.3213L33.1675 6.96143ZM60.9233 70.4247L53.8037 71.1075L52.6449 58.7013C52.5135 57.3175 52.5733 55.9457 53.2362 54.8701C53.7678 54.0059 54.3711 53.2687 55.6911 53.1418C57.1066 53.0088 57.9906 53.5829 58.6656 54.4108C59.4062 55.3172 59.6332 56.6709 59.7526 57.9338L60.9233 70.4247ZM75.4314 69.0348L64.0232 70.1285L62.6853 55.8369C62.3389 52.1205 59.0657 49.383 55.3984 49.7396C51.7251 50.0901 49.0194 53.4016 49.3718 57.112L50.7097 71.4036L39.3016 72.4974L33.7946 13.657L69.9244 10.1944L75.4314 69.0348ZM87.7175 67.8624L78.7284 68.7205L77.0858 51.1355L86.075 50.2774L87.7175 67.8624ZM90.1246 46.7967L76.7932 48.0717L76.3273 43.0742L89.6587 41.7991L90.1246 46.7967Z" fill="#DB332C"/>
<path d="M43.9543 17.9673L39.4175 18.4016L40.2046 26.8177L44.7414 26.3833L43.9543 17.9673Z" fill="#DB332C"/>
<path d="M54.6154 16.9463L50.0786 17.3806L50.8657 25.7967L55.4025 25.3623L54.6154 16.9463Z" fill="#DB332C"/>
<path d="M65.2702 15.926L60.7334 16.3604L61.5205 24.7764L66.0573 24.3421L65.2702 15.926Z" fill="#DB332C"/>
<path d="M45.4045 33.5217L40.8677 33.9561L41.6548 42.3721L46.1916 41.9378L45.4045 33.5217Z" fill="#DB332C"/>
<path d="M56.0656 32.5007L51.5288 32.9351L52.3159 41.3511L56.8527 40.9168L56.0656 32.5007Z" fill="#DB332C"/>
<path d="M66.7267 31.4797L62.1899 31.9141L62.9771 40.3301L67.5138 39.8958L66.7267 31.4797Z" fill="#DB332C"/>
<path d="M93.1646 17.0229C87.8069 18.159 86.917 19.2769 86.3197 25.7006C86.3018 25.894 86.0688 25.9 86.039 25.7127C85.0236 19.3434 84.0679 18.2859 78.6505 17.5064C78.4893 17.4822 78.4773 17.2103 78.6386 17.174C83.9962 16.0379 84.8862 14.92 85.4835 8.4963C85.5014 8.30293 85.7343 8.29688 85.7642 8.48421C86.7796 14.8535 87.7352 15.911 93.1526 16.6906C93.3139 16.7147 93.3258 16.9867 93.1646 17.0229Z" fill="#F88E86"/>
<path d="M113.275 33.321C104.065 35.4965 102.56 37.6115 101.658 49.6733C101.628 50.0359 101.234 50.0479 101.174 49.6914C99.3045 37.7445 97.6321 35.7624 88.2787 34.3544C87.9979 34.3121 87.98 33.7984 88.2548 33.7319C97.4649 31.5565 98.9701 29.4414 99.872 17.3797C99.9018 17.0171 100.296 17.005 100.356 17.3616C102.225 29.3085 103.898 31.2906 113.251 32.6986C113.526 32.7349 113.55 33.2545 113.275 33.321Z" fill="#F88E86"/>
<path d="M20.8689 37.9739C14.4123 39.8774 13.4267 41.4365 13.2476 50.0296C13.2416 50.2834 12.9609 50.3136 12.9071 50.0598C11.1272 41.6541 9.86693 40.3125 3.17136 39.678C2.97425 39.6599 2.93842 39.2913 3.12955 39.2369C9.5862 37.3334 10.5717 35.7743 10.7509 27.1751C10.7569 26.9213 11.0376 26.8911 11.0914 27.1449C12.8713 35.5507 14.1315 36.8922 20.8271 37.5267C21.0302 37.5509 21.066 37.9135 20.8689 37.9739Z" fill="#F88E86"/>
<path d="M55.0757 159.341C52.7642 159.281 50.62 159.982 48.8699 161.22C48.0337 161.813 46.8929 161.655 46.2359 160.864L46.212 160.834C45.549 160.042 45.5729 158.876 46.2658 158.114C48.637 155.48 50.0107 151.914 49.7838 148.023C49.3836 141.206 43.9961 135.659 37.2647 135.145C29.285 134.541 22.6252 140.91 22.6252 148.856C22.6252 149.461 22.667 150.059 22.7387 150.645C22.9836 152.543 22.0459 154.404 20.3376 155.232C17.4707 156.622 14.9501 158.634 12.9492 161.093C21.2156 173.336 33.5735 182.522 48.0337 186.625C48.864 185.289 49.5568 183.857 50.0884 182.347C50.5901 180.914 52.0176 180.062 53.5049 180.25C53.9289 180.304 54.359 180.328 54.795 180.328C60.7738 180.328 65.5641 175.216 65.146 169.076C64.7756 163.734 60.3736 159.48 55.0757 159.341Z" fill="#F88E86"/>
<path d="M116.984 88.5717C118.185 90.3121 119.296 92.1129 120.323 93.9681C120.335 93.9862 120.341 94.0043 120.353 94.0225C121.595 96.2705 122.7 98.6091 123.668 101.014C124.642 103.431 125.472 105.921 126.147 108.477C124.08 110.677 121.476 112.351 118.543 113.287C121.637 116.702 123.525 121.252 123.525 126.25C123.525 130.631 122.067 134.674 119.624 137.9C122.157 139.308 124.2 141.502 125.442 144.155C123.226 151.328 119.798 157.951 115.396 163.789C114.619 163.928 113.825 164 113.006 164C105.415 164 99.2569 157.776 99.2569 150.089C99.2569 149.678 99.2748 149.267 99.3106 148.868C99.5018 146.639 98.343 144.517 96.3541 143.551C89.981 140.457 85.585 133.87 85.585 126.244C85.585 119.349 89.1807 113.312 94.5742 109.928C96.808 108.526 97.7039 105.691 96.6408 103.262C95.6612 101.014 95.1117 98.5305 95.1117 95.9139V95.8837C95.1117 94.1554 93.9231 92.6688 92.2507 92.3123C91.7371 92.2035 91.2294 92.0706 90.7336 91.9135C90.7276 91.9135 90.7276 91.9135 90.7217 91.9135C90.1602 91.7382 89.7481 91.2608 89.6884 90.6686C88.9358 83.0968 82.6225 77.1928 74.9414 77.1928C68.4549 77.1928 62.9419 81.4108 60.9291 87.2785C60.1825 89.4661 59.2507 91.5811 58.0502 93.5511L57.9427 93.7264C55.1653 98.3069 50.8708 101.842 45.77 103.619C44.9637 103.897 44.4142 104.652 44.4142 105.51V105.522C44.4142 109.541 42.7955 113.179 40.1913 115.807C38.9072 117.101 38.1904 118.877 38.2681 120.702C38.2741 120.829 38.2741 120.956 38.2741 121.083C38.2741 126.135 34.0572 130.19 28.9923 129.845C24.7396 129.555 21.2873 126.111 20.9408 121.814C20.899 121.276 20.905 120.744 20.9528 120.231C21.132 118.351 20.4809 116.502 19.2505 115.082C17.0406 112.526 15.6967 109.184 15.6967 105.516C15.6967 102.954 16.3537 100.549 17.5065 98.458C18.6114 96.4517 18.6712 94.0466 17.6558 91.992C16.6583 89.9737 15.9356 87.7922 15.5474 85.4898C15.8878 85.0487 16.2402 84.6196 16.5926 84.1845C16.6583 84.106 16.724 84.0274 16.7897 83.9489C17.0824 83.5984 17.381 83.2479 17.6797 82.9034C17.7693 82.8007 17.8529 82.704 17.9425 82.6073C18.2292 82.281 18.5218 81.9547 18.8145 81.6344C18.9041 81.5317 18.9997 81.435 19.0893 81.3383C19.3939 81.012 19.7045 80.6857 20.0151 80.3654C20.0927 80.2868 20.1704 80.2022 20.248 80.1237C20.6123 79.749 20.9886 79.3804 21.3589 79.0117C21.3828 78.9876 21.4067 78.9634 21.4306 78.9453C22.2549 78.1476 23.103 77.3681 23.9691 76.6127C24.0288 76.5583 24.0885 76.51 24.1542 76.4556C24.5126 76.1474 24.877 75.8392 25.2413 75.537C25.3488 75.4524 25.4504 75.3618 25.5579 75.2772C25.8864 75.0113 26.2149 74.7454 26.5494 74.4856C26.6688 74.3889 26.7942 74.2982 26.9137 74.2015C27.2422 73.9477 27.5767 73.7 27.9052 73.4522C28.0247 73.3616 28.1441 73.277 28.2636 73.1863C28.6219 72.9265 28.9803 72.6727 29.3447 72.4189C29.4402 72.3524 29.5358 72.2859 29.6313 72.2195C30.5691 71.5729 31.5188 70.9565 32.4923 70.3582C32.5342 70.334 32.576 70.3099 32.6178 70.2797C33.0478 70.0198 33.4838 69.76 33.9199 69.5062C34.0453 69.4336 34.1767 69.3611 34.3021 69.2886C34.6605 69.0892 35.0189 68.8837 35.3772 68.6904C35.5325 68.6058 35.6878 68.5272 35.8431 68.4426C36.1836 68.2613 36.53 68.0861 36.8704 67.9108C37.0317 67.8262 37.1989 67.7477 37.3602 67.6631C37.7126 67.4878 38.065 67.3186 38.4174 67.1554C38.5727 67.0829 38.728 67.0104 38.8833 66.9379C39.2775 66.7566 39.6717 66.5814 40.0719 66.4061C40.1854 66.3578 40.2989 66.3034 40.4183 66.255C41.4576 65.8079 42.5088 65.3909 43.572 64.9981C43.7153 64.9437 43.8587 64.8954 44.002 64.841C44.3843 64.702 44.7725 64.5691 45.1548 64.4361C45.3399 64.3757 45.5251 64.3153 45.7103 64.2548C46.0627 64.14 46.4151 64.0252 46.7675 63.9164C46.9646 63.856 47.1676 63.7956 47.3647 63.7351C47.7112 63.6324 48.0636 63.5357 48.41 63.433C48.6131 63.3786 48.8102 63.3242 49.0132 63.2698C49.3776 63.1731 49.7479 63.0825 50.1123 62.9918C50.2974 62.9435 50.4826 62.9012 50.6677 62.8529C51.1097 62.7501 51.5517 62.6534 51.9937 62.5568C52.1072 62.5326 52.2207 62.5084 52.3342 62.4842C52.8956 62.3694 53.4571 62.2606 54.0245 62.1579C54.1559 62.1337 54.2873 62.1156 54.4247 62.0914C54.8547 62.0189 55.2847 61.9464 55.7208 61.8799C55.9238 61.8497 56.1269 61.8195 56.33 61.7953C56.7003 61.741 57.0647 61.6926 57.435 61.6503C57.656 61.6201 57.8829 61.5959 58.1039 61.5717C58.4563 61.5294 58.8147 61.4932 59.1731 61.463C59.4 61.4388 59.633 61.4207 59.86 61.4025C60.2243 61.3723 60.5827 61.3482 60.947 61.324C61.168 61.3119 61.389 61.2938 61.61 61.2817C62.0042 61.2575 62.3984 61.2454 62.7986 61.2273C62.9897 61.2213 63.1749 61.2092 63.366 61.2031C63.9514 61.185 64.5427 61.179 65.134 61.179C65.6417 61.179 66.1434 61.185 66.6451 61.1971C66.8064 61.2031 66.9676 61.2092 67.1289 61.2152C67.4694 61.2273 67.8158 61.2394 68.1562 61.2575C68.3414 61.2636 68.5325 61.2756 68.7177 61.2877C69.0402 61.3059 69.3568 61.324 69.6733 61.3482C69.8585 61.3602 70.0496 61.3723 70.2348 61.3905C70.5633 61.4146 70.8978 61.4448 71.2263 61.4811C71.3935 61.4992 71.5608 61.5113 71.728 61.5294C72.158 61.5717 72.5881 61.6261 73.0122 61.6805C73.0719 61.6866 73.1376 61.6926 73.1973 61.7047C73.6811 61.7651 74.1649 61.8376 74.6487 61.9102C74.804 61.9343 74.9593 61.9585 75.1146 61.9827C75.4431 62.0371 75.7776 62.0914 76.1061 62.1458C76.2913 62.176 76.4764 62.2123 76.6556 62.2486C76.9542 62.3029 77.2589 62.3634 77.5575 62.4238C77.7486 62.4601 77.9338 62.5024 78.119 62.5386C78.4236 62.6051 78.7222 62.6716 79.0268 62.738C79.2 62.7803 79.3792 62.8166 79.5524 62.8589C79.9108 62.9435 80.2692 63.0341 80.6276 63.1248C80.741 63.155 80.8485 63.1792 80.962 63.2094C81.4219 63.3303 81.8759 63.4572 82.3298 63.5841C82.4911 63.6324 82.6464 63.6807 82.8076 63.723C83.1123 63.8137 83.4109 63.9043 83.7095 63.995C83.9007 64.0554 84.0858 64.1158 84.277 64.1763C84.5457 64.2609 84.8145 64.3515 85.0833 64.4422C85.2804 64.5086 85.4715 64.5751 85.6686 64.6416C85.9314 64.7322 86.1943 64.8289 86.4571 64.9256C86.6482 64.9921 86.8393 65.0646 87.0245 65.1311C87.3112 65.2398 87.5979 65.3486 87.8786 65.4574C88.0399 65.5178 88.2011 65.5782 88.3624 65.6447C88.7088 65.7837 89.0493 65.9227 89.3897 66.0677C89.3897 66.0677 100.607 82.8672 100.607 84.5048C100.607 86.1424 104.167 93.0133 105.242 93.9983C106.323 94.9773 110.635 98.2223 112.248 96.1133C113.884 93.9983 116.984 88.5717 116.984 88.5717Z" fill="#F88E86"/>
<path d="M128.488 107.891C128.506 107.547 128.416 107.226 128.237 106.954C120.49 79.1869 95.2252 58.7859 65.343 58.7859C29.3148 58.7859 0 88.4387 0 124.89C0 161.341 29.3148 191 65.343 191C101.371 191 130.686 161.347 130.686 124.89C130.686 119.016 129.915 113.318 128.488 107.891ZM114.971 86.7769C114.798 86.9824 114.655 87.2241 114.553 87.49C113.705 89.7803 112.188 92.5721 110.074 93.9076C109.727 94.1312 109.279 94.4031 108.849 94.3246C108.33 94.2339 107.888 93.678 107.529 93.3275C106.556 92.3787 105.636 91.3635 104.806 90.2818C103.145 88.1124 101.777 85.665 100.816 83.1028C100.284 81.6827 99.8004 80.2384 99.1613 78.8667C98.5102 77.4707 97.6561 76.1957 96.7841 74.9327C95.4163 72.9566 93.8693 70.8839 93.2661 68.5332C101.813 72.8781 109.237 79.1446 114.971 86.7769ZM48.9595 180.576C47.8485 181.917 47.3647 183.531 47.078 185.199C33.5615 180.999 21.992 172.273 14.1019 160.773C14.2273 160.658 14.3408 160.525 14.4483 160.356C15.0934 159.305 16.4313 158.73 17.6976 158.162C19.1012 157.54 20.4929 156.936 21.6695 155.908C24.7993 153.177 23.3538 148.796 25.0442 145.382C25.8027 143.847 26.9017 142.439 28.3113 141.466C30.0076 140.293 32.0205 139.617 33.9676 139.006C36.1059 138.335 37.9694 138.493 40.0719 139.26C41.6726 139.84 43.2793 140.68 44.5694 141.816C45.8118 142.91 46.7853 144.227 47.1736 145.871C47.6753 147.992 47.0422 150.21 46.3434 152.204C45.6684 154.132 44.5515 156.047 44.229 158.078C43.8527 160.489 45.1846 162.67 47.6813 162.906C48.5115 162.985 49.3596 162.834 50.1361 162.519C51.1097 162.127 51.9399 161.444 52.9075 161.069C54.6576 160.392 56.772 161.861 58.2234 162.701C59.9555 163.698 60.9828 164.888 61.61 166.81C62.3028 168.913 62.9359 171.173 62.7508 173.409C62.6134 175.053 61.8429 176.914 60.3019 177.675C58.6415 178.497 56.5629 178.116 54.777 178.189C52.6268 178.279 50.4109 178.823 48.9595 180.576ZM65.343 187.96C60.3019 187.96 55.4042 187.35 50.7035 186.202C50.8947 184.812 51.2411 183.235 52.4655 182.528C53.8512 181.718 55.7625 182.026 57.2916 182.008C59.3463 181.99 61.4129 181.688 63.0912 180.401C64.7158 179.156 65.8208 177.282 66.2748 175.282C66.8243 172.835 66.4898 170.303 65.8686 167.91C65.3012 165.728 64.6143 163.468 63.1271 161.734C61.7234 160.108 59.615 159.008 57.6977 158.126C55.3205 157.032 52.9911 156.724 50.608 157.969C49.8793 158.35 49.1387 158.996 48.3025 159.111C47.9321 159.16 47.9023 159.256 47.9202 158.821C47.9501 157.842 48.619 156.748 48.9774 155.854C49.4373 154.712 49.8972 153.564 50.2675 152.391C51.0022 150.065 51.3725 147.611 50.8947 145.188C50.5005 143.188 49.4313 141.357 48.0516 139.895C46.6539 138.408 44.892 137.242 43.0523 136.396C40.9738 135.435 38.7101 134.649 36.3926 134.704C34.0393 134.758 31.6979 135.677 29.5417 136.565C27.5468 137.387 25.7072 138.456 24.202 140.04C22.6072 141.72 21.4067 143.804 20.7796 146.046C20.469 147.164 20.3376 148.325 20.2659 149.485C20.2002 150.542 20.23 151.733 19.585 152.633C19.2744 153.068 18.7189 153.443 18.1037 153.787C17.2914 154.241 16.4313 154.585 15.5832 154.966C14.2154 155.582 12.9432 156.325 11.9576 157.425C6.28344 147.92 3.01032 136.788 3.01032 124.902C3.01032 111.68 7.05394 99.4007 13.9526 89.2485C15.9535 91.3031 16.1148 94.8201 15.7385 97.485C15.4398 99.6001 14.8485 101.667 14.3826 103.746C13.8929 105.945 13.3852 108.32 14.1377 110.52C14.7828 112.411 16.055 114.037 16.9748 115.789C17.9066 117.572 18.6771 119.427 19.2863 121.349C20.2719 124.479 21.0065 128.081 23.6107 130.31C26.7942 133.036 31.0588 132.419 34.4932 130.546C37.9097 128.685 40.9439 125.688 41.1529 121.572C41.2246 120.104 40.711 118.116 41.6427 116.841C42.1265 116.182 42.8134 115.68 43.351 115.064C44.0378 114.272 44.5276 113.426 44.9099 112.447C46.0447 109.541 45.4355 105.764 48.3861 103.921C50.1182 102.839 52.0116 102.12 53.6541 100.875C55.4281 99.5276 56.9332 97.9443 58.2831 96.1616C61.0903 92.4452 62.912 88.1366 64.9607 83.973C66.0597 82.3837 68.1204 81.9002 69.8883 81.4893C72.0684 80.9757 74.3381 80.0994 76.6018 80.178C78.6147 80.2505 80.4424 81.4349 82.067 82.5408C83.7155 83.6648 85.2266 84.68 86.015 86.6017C86.7975 88.4991 87.132 90.9586 88.7446 92.3666C89.4853 93.0132 90.3872 93.2429 91.2293 93.7082C91.9939 94.1312 92.6927 94.6992 93.2064 95.4123C93.6065 95.9743 93.9111 96.6209 93.9709 97.3219C94.0664 98.4338 93.4871 99.4973 93.505 100.615C93.5229 101.715 93.8992 102.718 94.3711 103.697C94.7115 104.398 95.2252 105.117 95.3267 105.915C95.6015 108.054 93.3736 109.74 91.9043 110.84C90.1721 112.133 88.4042 113.438 87.2514 115.3C86.9826 115.517 86.7616 115.825 86.6362 116.248C85.3521 120.666 84.1635 125.295 84.5278 129.942C84.8742 134.42 86.5406 138.432 89.7421 141.581C91.3727 143.188 93.1586 144.638 94.9325 146.077C96.4854 147.34 97.2978 148.584 97.692 150.56C98.0742 152.47 98.1101 154.434 98.4804 156.35C98.8567 158.271 99.6391 160.114 100.792 161.692C103.306 165.118 107.189 167.173 111.334 167.42C99.9318 180.032 83.5363 187.96 65.343 187.96ZM114.529 163.595C110.952 163.746 106.108 162.459 103.975 159.637C101.765 156.712 102.022 153.111 101.365 149.678C101.007 147.805 100.266 146.04 98.9881 144.62C97.5725 143.049 95.703 141.834 94.1202 140.438C92.7106 139.188 91.2711 137.9 90.2737 136.275C89.2882 134.667 88.7088 132.861 88.4221 130.993C87.7531 126.612 88.8581 122.195 90.0646 118.001C90.0825 117.965 90.1064 117.94 90.1244 117.904C91.1517 115.825 93.1944 114.641 94.9445 113.257C96.8199 111.777 98.5461 109.891 98.9821 107.438C99.1852 106.278 99.1255 105.111 98.6954 104.005C98.3012 102.984 97.5247 102.005 97.3097 100.923C97.1186 99.9264 97.7099 98.742 97.7457 97.7207C97.7815 96.494 97.4351 95.2612 96.8796 94.1795C95.8284 92.137 93.9888 90.7411 91.9401 89.8467C91.1158 89.4841 90.8949 89.0309 90.5783 88.1849C90.1244 86.9763 89.766 85.7375 89.2344 84.5591C88.1832 82.2205 86.2838 80.8246 84.2411 79.4166C82.1207 77.9542 79.8511 76.6972 77.2648 76.4072C74.3978 76.0869 71.4771 77.1867 68.7236 77.8394C66.3166 78.4134 63.9692 79.3138 62.3446 81.1811C62.1356 81.3382 61.9444 81.5558 61.8011 81.8519C61.7712 81.9063 61.7473 81.9607 61.7234 82.015C61.6816 82.0815 61.6279 82.1419 61.5861 82.2084C61.4666 82.4018 61.4009 82.5891 61.3531 82.7765C59.7166 86.1545 58.1935 89.605 56.103 92.7292C54.1021 95.7205 51.6114 97.9806 48.4219 99.5819C46.857 100.368 45.2802 101.22 44.1633 102.616C43.0463 104.017 42.5267 105.716 42.2042 107.462C41.9294 108.955 41.798 110.641 40.9797 111.958C40.5855 112.592 39.9823 113.076 39.4686 113.608C38.7578 114.339 38.1844 115.143 37.8201 116.103C37.1511 117.862 37.4677 119.747 37.3841 121.578C37.3124 123.204 36.3329 124.431 35.1682 125.47C33.0717 127.337 29.261 129.543 26.5254 127.772C24.1124 126.213 23.6465 122.539 22.8223 120.013C22.1891 118.061 21.3948 116.152 20.469 114.327C19.6507 112.707 18.4203 111.203 17.7752 109.511C17.0167 107.522 17.9604 104.99 18.4262 103.032C18.9757 100.736 19.5193 98.4217 19.6447 96.0589C19.8418 92.3787 18.7786 88.7288 16.1506 86.2028C27.5647 71.3855 45.3698 61.8376 65.337 61.8376C73.8006 61.8376 81.8759 63.5659 89.2404 66.672C89.2523 70.1708 91.0203 73.2407 92.9495 76.0325C93.9171 77.4345 94.9146 78.8244 95.6851 80.3472C96.4436 81.8519 96.9095 83.4895 97.5426 85.0486C98.8328 88.2091 100.559 91.1037 102.733 93.7263C103.79 95.0014 104.955 96.3248 106.305 97.2917C107.822 98.3734 109.668 98.3613 111.31 97.5878C113.036 96.778 114.326 95.2552 115.443 93.7444C116.238 92.6748 116.883 91.5267 117.438 90.3302C120.705 95.3519 123.286 100.863 125.036 106.737C124.994 106.785 124.952 106.834 124.91 106.888C123.178 109.474 119.033 108.713 116.931 110.846C116.285 111.499 116.053 112.49 116.303 113.372C116.566 114.303 117.313 114.84 117.982 115.457C119.027 116.418 119.768 117.681 120.228 119.028C120.783 120.648 121.022 122.34 121.171 124.038C121.321 125.76 121.565 127.585 121.344 129.313C120.956 132.365 117.504 135.223 118.573 138.42C118.925 139.472 119.786 140.112 120.777 140.475C121.386 140.704 121.739 140.71 122.025 141.333C122.348 142.028 122.408 142.856 122.557 143.599C122.742 144.523 123.035 145.43 123.542 146.222C123.644 146.379 123.752 146.5 123.871 146.614C121.631 152.772 118.46 158.495 114.529 163.595ZM125.746 140.505C125.729 140.451 125.717 140.396 125.699 140.348C125.113 138.686 124.08 137.568 122.426 136.988C122.366 136.97 122.306 136.952 122.246 136.934C122.294 136.807 122.324 136.686 122.264 136.813C122.611 136.124 122.915 135.411 123.28 134.722C124.026 133.296 124.749 131.839 125.006 130.232C125.275 128.51 125.161 126.799 125.03 125.071C124.898 123.282 124.737 121.482 124.349 119.729C124.002 118.158 123.441 116.599 122.617 115.215C122.228 114.569 121.774 113.946 121.273 113.378C121.159 113.251 121.028 113.136 120.908 113.015C121.112 112.949 121.315 112.883 121.524 112.816C122.372 112.55 123.226 112.308 124.044 111.97C124.791 111.662 125.484 111.299 126.117 110.864C127.132 115.378 127.676 120.074 127.676 124.896C127.682 130.28 127.007 135.507 125.746 140.505Z" fill="#DB332C"/>
<path d="M81.9711 111.239C81.9113 111.263 76.1953 117.711 76.1953 117.711L82.4071 119.711L86.8449 113.68C86.8509 113.68 83.7689 110.502 81.9711 111.239Z" fill="white"/>
<path d="M112.863 142.348C112.845 142.415 107.254 148.965 107.254 148.965L104.507 142.983L109.853 137.761C109.847 137.768 113.353 140.457 112.863 142.348Z" fill="white"/>
<path d="M117.115 159.28C117.097 159.347 111.507 165.897 111.507 165.897L108.759 159.915L114.105 154.694C114.099 154.694 117.605 157.383 117.115 159.28Z" fill="white"/>
<path d="M55.3441 114.399L51.9993 114.055C51.9993 114.055 42.1202 118.974 42.2695 120.019C42.4188 121.071 77.8498 136.752 77.8498 136.752C77.8498 136.752 60.0149 157.183 58.2827 157.262C56.5506 157.341 45.6024 157.044 44.3182 158.398C43.034 159.752 37.987 161.033 39.1875 162.453C40.3821 163.867 53.0863 168.284 53.0863 168.284C53.0863 168.284 55.0036 170.81 55.1589 171.149C55.3142 171.487 59.5848 179.355 59.5848 179.355L62.4219 185.785C62.4219 185.785 64.166 187.453 65.0261 184.637C65.8862 181.821 68.7949 179.536 68.7233 177.724C68.6516 175.911 68.0006 172.871 68.1439 171.463C68.2873 170.055 67.5347 167.396 67.7975 166.713C68.0603 166.03 86.8509 146.862 87.478 146.929C88.1112 146.995 104.363 185.035 106.758 184.057C109.154 183.078 112.361 174.11 112.361 174.11L102.924 132.45C102.924 132.45 115.622 121.107 117.247 115.789C118.871 110.471 122.592 103.933 116.393 104.646C110.193 105.359 100.803 111.178 100.308 111.644C99.812 112.109 91.6889 121.149 91.6889 121.149L72.8027 117.965L55.3441 114.399Z" fill="white"/>
<path d="M55.0576 172.351L60.6123 185.888C60.9588 186.794 61.8009 187.404 62.7566 187.465H62.9776C63.8675 187.465 64.6858 186.993 65.1398 186.22L67.7618 181.875C68.9027 179.99 69.476 177.814 69.4223 175.602L68.9684 167.596C68.9624 167.221 69.1117 166.864 69.3745 166.605L87.8844 148.548L103.479 183.168C104.089 184.51 105.403 185.38 106.86 185.398H106.938C108.401 185.41 109.733 184.564 110.366 183.229L112.743 178.34C113.388 177.01 113.556 175.494 113.227 174.049L111.686 167.052L117.36 161.178C118.812 159.673 118.788 157.268 117.307 155.794L116.297 154.784C114.81 153.316 112.427 153.34 110.969 154.845L109.339 156.597L107.846 150.011L113.388 144.378C114.828 142.874 114.804 140.475 113.335 138.994L112.283 137.973C110.79 136.517 108.413 136.541 106.956 138.033L105.582 139.496L104.077 132.794L113.167 123.857C115.491 121.149 117.354 118.061 118.668 114.732C120.054 111.317 121.249 106.773 119.009 104.531C114.798 100.374 102.697 108.018 100.033 110.774L91.4323 120.237L84.7785 118.823L86.1941 117.366C86.9048 116.647 87.299 115.674 87.2871 114.659C87.2751 113.644 86.863 112.677 86.1403 111.976L85.113 110.967C83.6377 109.505 81.2724 109.535 79.827 111.021L74.3439 116.744L67.7977 115.378L69.4283 113.686C70.8797 112.182 70.8558 109.776 69.3745 108.302L68.3532 107.293C66.8659 105.824 64.4887 105.849 63.0313 107.347L57.3571 113.245L50.3988 111.801C48.9653 111.499 47.4721 111.698 46.17 112.381L41.3917 114.901C40.0598 115.566 39.2355 116.955 39.2773 118.46C39.3251 119.953 40.2389 121.276 41.6067 121.832L76.1716 136.879L58.713 155.987C58.48 156.283 58.1157 156.446 57.7454 156.416L49.8254 156.162C47.5915 156.108 45.3935 156.73 43.5061 157.939L39.2594 160.713C38.0887 161.492 37.7602 163.087 38.5307 164.272C38.8114 164.707 39.2176 165.039 39.6894 165.239L53.2717 170.575L55.0576 172.351ZM81.5113 112.864C81.7443 112.647 82.0429 112.526 82.3595 112.514C82.694 112.508 83.0165 112.623 83.2674 112.846L84.2529 113.868C84.5037 114.079 84.6471 114.393 84.6292 114.726C84.6531 115.058 84.5157 115.384 84.2708 115.602L81.7144 118.237L77.2228 117.342L81.5113 112.864ZM64.7396 109.124C64.9725 108.9 65.2771 108.773 65.5997 108.773C65.9222 108.761 66.2328 108.882 66.4657 109.106L67.4931 110.127C67.9709 110.592 67.9888 111.36 67.5289 111.843C67.5229 111.849 67.517 111.855 67.511 111.861L64.7217 114.744L60.2301 113.807L64.7396 109.124ZM42.5385 119.56C42.0965 119.361 41.7979 118.926 41.774 118.436C41.7202 117.916 42.0069 117.427 42.4788 117.215L47.2093 114.647C48.0156 114.266 48.9175 114.152 49.7955 114.327L89.3238 122.479L82.2818 130.135L57.0465 119.336C56.3895 119.064 55.6429 119.379 55.3622 120.037C55.0875 120.672 55.3801 121.415 56.0073 121.693C56.0132 121.693 56.0132 121.693 56.0192 121.699L80.4661 132.178L77.9874 134.903L42.5385 119.56ZM67.6543 164.701C66.836 165.474 66.4 166.568 66.4538 167.692L66.8719 175.621C66.9316 177.391 66.4837 179.144 65.5698 180.654L62.9179 184.999L56.9868 170.333L61.9264 165.227C62.4221 164.743 62.4341 163.946 61.9562 163.45C61.9383 163.432 61.9264 163.42 61.9084 163.402C61.4127 162.918 60.6243 162.93 60.1405 163.42L55.2129 168.514L40.5913 162.803L44.838 160.06C46.2178 159.154 47.8185 158.664 49.461 158.64L49.7716 158.634L57.6916 158.9C58.8085 158.948 59.8836 158.489 60.6362 157.655L101.777 112.592C104.794 109.48 114.971 104.211 117.169 106.356C117.892 107.063 118.029 109.384 116.273 113.716C115.091 116.738 113.436 119.548 111.376 122.044L67.6543 164.701ZM112.827 156.736C113.054 156.507 113.365 156.368 113.687 156.356C114.01 156.362 114.314 156.495 114.541 156.718L115.569 157.739C116.052 158.211 116.064 158.984 115.598 159.468C115.592 159.474 115.586 159.48 115.586 159.48L111.053 164.151L110.032 159.631L112.827 156.736ZM108.748 139.828C109.196 139.339 109.942 139.314 110.426 139.762C110.444 139.774 110.456 139.792 110.474 139.81L111.495 140.819C111.979 141.278 112.009 142.04 111.555 142.535C111.543 142.547 111.525 142.566 111.513 142.578L107.213 147.019L106.191 142.499L108.748 139.828ZM110.766 174.708C110.952 175.584 110.838 176.491 110.444 177.295L108.067 182.183C107.846 182.643 107.38 182.933 106.878 182.908C106.382 182.908 105.934 182.594 105.749 182.129L89.8076 146.596L92.4476 144.064L103.324 168.532C103.527 168.979 103.963 169.275 104.453 169.282C104.626 169.282 104.794 169.239 104.943 169.161C105.576 168.871 105.863 168.127 105.6 167.475L94.4008 142.149L101.897 134.861L110.766 174.708Z" fill="#DB332C"/>
<path d="M104.608 113.475C103.915 113.481 103.36 114.055 103.366 114.756C103.372 115.457 103.939 116.019 104.632 116.013C106.466 115.995 107.977 117.463 108.025 119.318C108.043 120.019 108.622 120.569 109.315 120.551C110.02 120.539 110.581 119.959 110.575 119.246C110.462 116.001 107.816 113.444 104.608 113.475Z" fill="#DB332C"/>
</svg>